<?xml version="1.0" encoding="UTF-8" standalone="no"?>
<svg
   id="Layer_1"
   data-name="Layer 1"
   viewBox="0 0 610878.18 73008.627"
   version="1.1"
   width="610878.19"
   height="73008.625"
   xmlns="http://www.w3.org/2000/svg"
   xmlns:svg="http://www.w3.org/2000/svg">
  <defs
     id="defs1">
    <style
       id="style1">.cls-1{fill:#130754;}.cls-2{fill:#ffca00;}.cls-3{fill:#e70488;}</style>
  </defs>
  <title
     id="title1">Artboard 63</title>
  <path
     class="cls-1"
     d="m -29335.369,-18146.512 c -10.27,0 -20.73,-4.25 -27.28,-12.58 v 45 h -20.57 v -111.09 h 18.6 l 0.71,12.22 c 6.38,-9.39 17.71,-14.35 28.52,-14.35 20.73,0 36,17.37 36,40.4 0,23.03 -15.25,40.41 -35.98,40.4 z m -6.37,-65.55 c -12.05,0 -21.79,9.39 -21.79,25.16 0,15.77 9.74,25.18 21.79,25.18 12.05,0 21.79,-9.39 21.79,-25.16 0,-15.77 -9.74,-25.18 -21.79,-25.18 z"
     id="path1" />
  <path
     class="cls-1"
     d="m -29221.859,-18148.622 -0.71,-12.22 c -6.38,9.39 -17.72,14.35 -28.53,14.34 -20.73,0 -36,-17.36 -36,-40.39 0,-23.03 15.24,-40.4 36,-40.39 10.81,0 22.15,5 28.53,14.35 l 0.71,-12.22 h 18.64 v 76.53 z m -22.85,-63.43 c -12.05,0 -21.79,9.39 -21.8,25.16 -0.01,15.77 9.74,25.17 21.79,25.17 12.05,0 21.8,-9.39 21.8,-25.16 0,-15.77 -9.74,-25.17 -21.79,-25.17 z"
     id="path2" />
  <path
     class="cls-1"
     d="m -29131.349,-18148.612 v -42.34 c 0,-14.88 -5.13,-19.84 -14.52,-19.84 -9.75,0 -20.38,8.85 -20.38,19.48 v 42.7 h -20.56 v -76.54 h 18.79 l 0.89,14.18 c 5.14,-9.75 16.65,-16.3 28.35,-16.3 20.37,0 28,14.18 28,33.13 v 45.54 z"
     id="path3" />
  <path
     class="cls-1"
     d="m -29035.449,-18148.592 -0.71,-12.23 c -6.38,9.39 -17.72,14.35 -28.52,14.35 -20.73,0 -36,-17.37 -36,-40.4 0,-23.03 15.24,-40.39 36,-40.39 10.27,0 20.72,4.26 27.28,12.58 v -40.21 h 20.56 v 106.3 z m -22.85,-63.43 c -12,0 -21.79,9.39 -21.79,25.15 0,15.76 9.74,25.15 21.79,25.15 12.05,0 21.79,-9.38 21.79,-25.15 0,-15.77 -9.71,-25.15 -21.79,-25.15 z"
     id="path4" />
  <path
     class="cls-1"
     d="m -28939.619,-18148.582 -0.71,-12.22 c -6.38,9.39 -17.72,14.34 -28.53,14.34 -20.73,0 -36,-17.36 -36,-40.4 0,-23.04 15.24,-40.39 36,-40.39 10.81,0 22.15,5 28.53,14.36 l 0.71,-12.23 h 18.6 v 76.53 z m -22.85,-63.43 c -12,0 -21.79,9.39 -21.8,25.16 -0.01,15.77 9.75,25.13 21.79,25.13 12.04,0 21.8,-9.39 21.8,-25.16 0,-15.77 -9.74,-25.13 -21.79,-25.13 z"
     id="path5" />
  <path
     class="cls-1"
     d="m -28875.489,-18146.092 a 60.16,60.16 0 0 1 -30.65,-8.69 l 3.37,-14.17 c 6.2,3.72 15.59,8.51 26.93,8.51 8.15,0 13.82,-2.48 13.82,-8.86 0,-5.49 -5.85,-7.44 -16.3,-9.92 -18.78,-4.08 -25.51,-14 -25.51,-24.81 0,-12.05 9.39,-23.38 30.12,-23.38 12.58,0 23.57,5.49 26,6.91 l -3.37,13.47 a 44.59,44.59 0 0 0 -22.14,-6.38 c -8.32,0 -12.4,2.83 -12.4,7.44 0,5.13 5.32,7.44 13.46,9.39 20.2,4.25 28.35,13.64 28.35,23.92 0.04,16.47 -12.01,26.57 -31.68,26.57 z"
     id="path6" />
  <rect
     class="cls-1"
     x="-29551.34"
     y="-18277.303"
     width="24.09"
     height="50.02"
     id="rect6" />
  <rect
     class="cls-1"
     x="-29551.34"
     y="-18174.553"
     width="24.09"
     height="50.02"
     id="rect7" />
  <rect
     class="cls-2"
     x="-29551.34"
     y="-18212.682"
     width="24.09"
     height="23.6"
     id="rect8" />
  <rect
     class="cls-1"
     x="-29590.029"
     y="-18236.172"
     width="24.09"
     height="166.27"
     id="rect9" />
  <rect
     class="cls-1"
     x="-29513.439"
     y="-18133.281"
     width="24.09"
     height="50.02"
     id="rect10" />
  <rect
     class="cls-1"
     x="-29513.439"
     y="-18236.111"
     width="24.09"
     height="50.02"
     id="rect11" />
  <rect
     class="cls-3"
     x="-29513.439"
     y="-18171.492"
     width="24.09"
     height="23.6"
     id="rect12" />
  <rect
     class="cls-1"
     x="-29475.549"
     y="-18290.332"
     width="24.09"
     height="166.27"
     id="rect13" />
</svg>
