<?xml version="1.0" encoding="utf-8"?>
<!-- Generator: Adobe Illustrator 18.0.0, SVG Export Plug-In . SVG Version: 6.00 Build 0)  -->
<!DOCTYPE svg PUBLIC "-//W3C//DTD SVG 1.1//EN" "http://www.w3.org/Graphics/SVG/1.1/DTD/svg11.dtd">
<svg version="1.1" id="Calque_1" xmlns="http://www.w3.org/2000/svg" xmlns:xlink="http://www.w3.org/1999/xlink" x="0px" y="0px"
	 viewBox="0 0 595.3 841.9" enable-background="new 0 0 595.3 841.9" xml:space="preserve">
<g>
	<g>
		<path d="M67.2,226.1c153.6,0,307.2,0,460.8,0c0,130,0,260,0,390c-153.6,0-307.2,0-460.8,0C67.2,486.1,67.2,356.1,67.2,226.1z
			 M350.9,545.2c11.9,0,23.6,0,35.3,0c0-23.7,0-47.3,0-71c11.9,0,23.6,0,35.4,0c0-35.5,0-70.9,0-106.3c-11.8,0-23.6,0-35.5,0
			c0-11.9,0-23.6,0-35.4c-59.1,0-118.1,0-177.1,0c0,11.8,0,23.6,0,35.5c-11.9,0-23.6,0-35.4,0c0,35.5,0,70.9,0,106.3
			c11.8,0,23.6,0,35.5,0c0,23.7,0,47.3,0,70.9c11.8,0,23.5,0,35.3,0c0-11.8,0-23.6,0-35.3c11.9,0,23.6,0,35.5,0
			c0,11.9,0,23.6,0,35.4c11.9,0,23.6,0,35.5,0c0-11.8,0-23.6,0-35.4c11.9,0,23.6,0,35.5,0C350.9,521.7,350.9,533.4,350.9,545.2z
			 M138.1,297c-11.9,0-23.6,0-35.3,0c0,11.9,0,23.6,0,35.4c23.6,0,47.1,0,70.7,0c0-23.6,0-47.1,0-70.7c-11.8,0-23.6,0-35.4,0
			C138.1,273.4,138.1,285.1,138.1,297z M421.8,332.4c23.6,0,47.2,0,70.7,0c0-11.8,0-23.6,0-35.4c-11.8,0-23.4,0-35.3,0
			c0-11.8,0-23.5,0-35.2c-11.9,0-23.6,0-35.4,0C421.8,285.3,421.8,308.8,421.8,332.4z M138,580.5c11.9,0,23.7,0,35.5,0
			c0-23.6,0-47.1,0-70.6c-23.6,0-47.1,0-70.7,0c0,11.8,0,23.6,0,35.5c11.7,0,23.4,0,35.2,0C138,557.1,138,568.8,138,580.5z
			 M492.5,509.9c-23.6,0-47.1,0-70.7,0c0,23.6,0,47.1,0,70.6c11.8,0,23.6,0,35.5,0c0-11.8,0-23.5,0-35.2c11.8,0,23.5,0,35.2,0
			C492.5,533.5,492.5,521.7,492.5,509.9z"/>
		<path fill="#FFFFFF" d="M350.9,545.2c0-11.8,0-23.6,0-35.4c-11.8,0-23.6,0-35.5,0c0,11.8,0,23.6,0,35.4c-11.9,0-23.6,0-35.5,0
			c0-11.7,0-23.5,0-35.4c-11.9,0-23.7,0-35.5,0c0,11.8,0,23.5,0,35.3c-11.8,0-23.5,0-35.3,0c0-23.6,0-47.2,0-70.9
			c-11.9,0-23.6,0-35.5,0c0-35.5,0-70.8,0-106.3c11.8,0,23.5,0,35.4,0c0-11.9,0-23.6,0-35.5c59.1,0,118,0,177.1,0
			c0,11.8,0,23.5,0,35.4c11.9,0,23.6,0,35.5,0c0,35.5,0,70.8,0,106.3c-11.8,0-23.5,0-35.4,0c0,23.7,0,47.3,0,71
			C374.4,545.2,362.8,545.2,350.9,545.2z M209.1,438.7c23.6,0,47.1,0,70.6,0c0-11.8,0-23.5,0-35.1c-23.6,0-47.1,0-70.6,0
			C209.1,415.3,209.1,426.9,209.1,438.7z M315.5,438.7c23.6,0,47.2,0,70.6,0c0-11.8,0-23.5,0-35.1c-23.6,0-47.1,0-70.6,0
			C315.5,415.3,315.5,426.9,315.5,438.7z"/>
		<path fill="#FFFFFF" d="M138.1,297c0-11.9,0-23.5,0-35.3c11.8,0,23.6,0,35.4,0c0,23.5,0,47.1,0,70.7c-23.5,0-47.1,0-70.7,0
			c0-11.8,0-23.5,0-35.4C114.5,297,126.2,297,138.1,297z"/>
		<path fill="#FFFFFF" d="M421.8,332.4c0-23.6,0-47.1,0-70.7c11.8,0,23.5,0,35.4,0c0,11.7,0,23.4,0,35.2c11.8,0,23.5,0,35.3,0
			c0,11.9,0,23.6,0,35.4C468.9,332.4,445.4,332.4,421.8,332.4z"/>
		<path fill="#FFFFFF" d="M138,580.5c0-11.8,0-23.4,0-35.2c-11.8,0-23.4,0-35.2,0c0-11.9,0-23.6,0-35.5c23.5,0,47.1,0,70.7,0
			c0,23.5,0,47.1,0,70.6C161.7,580.5,150,580.5,138,580.5z"/>
		<path fill="#FFFFFF" d="M492.5,509.9c0,11.8,0,23.6,0,35.4c-11.7,0-23.4,0-35.2,0c0,11.8,0,23.5,0,35.2c-11.9,0-23.7,0-35.5,0
			c0-23.6,0-47.1,0-70.6C445.3,509.9,468.8,509.9,492.5,509.9z"/>
		<path d="M209.1,438.7c0-11.8,0-23.4,0-35.1c23.6,0,47.1,0,70.6,0c0,11.7,0,23.4,0,35.1C256.3,438.7,232.8,438.7,209.1,438.7z"/>
		<path d="M315.5,438.7c0-11.7,0-23.4,0-35.1c23.6,0,47.1,0,70.6,0c0,11.7,0,23.4,0,35.1C362.6,438.7,339.1,438.7,315.5,438.7z"/>
	</g>
</g>
</svg>
