<svg id="Calque_1" data-name="Calque 1" xmlns="http://www.w3.org/2000/svg" viewBox="0 0 923.38 923.38"><defs><style>.cls-1{stroke:#fff;stroke-miterlimit:10;}.cls-2{fill:#fff;}</style></defs><title>logo_rond</title><circle class="cls-1" cx="461.69" cy="461.69" r="461.19"/><path class="cls-2" d="M404.2,669.45v-70.8h-71v70.8h-71v-70.8h-71v70.6H120.6V527.45h-71V314.85h70.8v-71H474.6v70.8h71v212.6H474.8v142C451.2,669.45,428,669.45,404.2,669.45Zm-283.6-213H261.8v-70.2H120.6Zm212.8,0H474.6v-70.2H333.4Z" transform="translate(164.09 40.74)"/><path class="cls-2" d="M-21.4,173v-70.6H49.4v141.4H-92v-70.8Z" transform="translate(164.09 40.74)"/><path class="cls-2" d="M546,243.85V102.45h70.8v70.4h70.6v70.8C640.2,243.85,593.2,243.85,546,243.85Z" transform="translate(164.09 40.74)"/><path class="cls-2" d="M-21.6,740v-70.4H-92v-71H49.4v141.2C25.8,740,2.4,740-21.6,740Z" transform="translate(164.09 40.74)"/><path class="cls-2" d="M687.4,598.85v70.8H617V740H546V598.85Z" transform="translate(164.09 40.74)"/></svg>